<svg width="256" height="98" viewBox="0 0 256 98" fill="none"
    xmlns="http://www.w3.org/2000/svg">
    <g filter="url(#filter0_d_1332_756)">
        <rect x="4" y="2" width="248" height="90" rx="10" fill="#F6CE3D"/>
        <rect x="4.5" y="2.5" width="247" height="89" rx="9.5" stroke="#2B2626"/>
        <g clip-path="url(#clip0_1332_756)">
            <path d="M59.5897 48.0817C59.5708 44.9669 61.0296 42.6194 63.9755 40.8884C62.3279 38.6049 59.8352 37.3489 56.5494 37.1069C53.4382 36.8694 50.0343 38.8606 48.788 38.8606C47.4708 38.8606 44.4588 37.1891 42.0888 37.1891C37.1979 37.2621 32 40.9615 32 48.4881C32 50.7123 32.4202 53.0096 33.2605 55.3754C34.3841 58.4902 38.4348 66.1218 42.6601 65.9985C44.8695 65.9483 46.4322 64.4822 49.3073 64.4822C52.0974 64.4822 53.5421 65.9985 56.0064 65.9985C60.2695 65.9391 63.933 59.0017 65 55.8778C59.2828 53.2699 59.5897 48.2415 59.5897 48.0817ZM54.6279 34.1519C57.0215 31.4025 56.8043 28.8997 56.7335 28C54.6185 28.1187 52.173 29.393 50.7803 30.9595C49.2459 32.6402 48.3442 34.7182 48.5378 37.0612C50.8227 37.2302 52.9094 36.093 54.6279 34.1519Z" fill="#2B2626"/>
        </g>
        <path d="M91.162 37V27.2H95.614C96.678 27.2 97.616 27.4053 98.428 27.816C99.24 28.2173 99.8747 28.782 100.332 29.51C100.789 30.238 101.018 31.1013 101.018 32.1C101.018 33.0893 100.789 33.9527 100.332 34.69C99.8747 35.418 99.24 35.9873 98.428 36.398C97.616 36.7993 96.678 37 95.614 37H91.162ZM93.43 35.138H95.502C96.1553 35.138 96.72 35.0167 97.196 34.774C97.6813 34.522 98.0547 34.1673 98.316 33.71C98.5867 33.2527 98.722 32.716 98.722 32.1C98.722 31.4747 98.5867 30.938 98.316 30.49C98.0547 30.0327 97.6813 29.6827 97.196 29.44C96.72 29.188 96.1553 29.062 95.502 29.062H93.43V35.138ZM106.358 37.112C105.556 37.112 104.842 36.944 104.216 36.608C103.6 36.272 103.11 35.8147 102.746 35.236C102.392 34.648 102.214 33.9807 102.214 33.234C102.214 32.478 102.392 31.8107 102.746 31.232C103.11 30.644 103.6 30.1867 104.216 29.86C104.842 29.524 105.556 29.356 106.358 29.356C107.152 29.356 107.861 29.524 108.486 29.86C109.112 30.1867 109.602 30.6393 109.956 31.218C110.311 31.7967 110.488 32.4687 110.488 33.234C110.488 33.9807 110.311 34.648 109.956 35.236C109.602 35.8147 109.112 36.272 108.486 36.608C107.861 36.944 107.152 37.112 106.358 37.112ZM106.358 35.32C106.722 35.32 107.049 35.236 107.338 35.068C107.628 34.9 107.856 34.662 108.024 34.354C108.192 34.0367 108.276 33.6633 108.276 33.234C108.276 32.7953 108.192 32.422 108.024 32.114C107.856 31.806 107.628 31.568 107.338 31.4C107.049 31.232 106.722 31.148 106.358 31.148C105.994 31.148 105.668 31.232 105.378 31.4C105.089 31.568 104.856 31.806 104.678 32.114C104.51 32.422 104.426 32.7953 104.426 33.234C104.426 33.6633 104.51 34.0367 104.678 34.354C104.856 34.662 105.089 34.9 105.378 35.068C105.668 35.236 105.994 35.32 106.358 35.32ZM113.665 37L110.949 29.468H113.007L115.261 35.95H114.281L116.633 29.468H118.481L120.763 35.95H119.783L122.107 29.468H124.039L121.309 37H119.195L117.193 31.442H117.837L115.765 37H113.665ZM129.832 29.356C130.43 29.356 130.962 29.4773 131.428 29.72C131.904 29.9533 132.278 30.3173 132.548 30.812C132.819 31.2973 132.954 31.9227 132.954 32.688V37H130.77V33.024C130.77 32.4173 130.635 31.9693 130.364 31.68C130.103 31.3907 129.73 31.246 129.244 31.246C128.899 31.246 128.586 31.3207 128.306 31.47C128.036 31.61 127.821 31.8293 127.662 32.128C127.513 32.4267 127.438 32.8093 127.438 33.276V37H125.254V29.468H127.34V31.554L126.948 30.924C127.219 30.42 127.606 30.0327 128.11 29.762C128.614 29.4913 129.188 29.356 129.832 29.356ZM135.134 37V26.612H137.318V37H135.134ZM143.129 37.112C142.326 37.112 141.612 36.944 140.987 36.608C140.371 36.272 139.881 35.8147 139.517 35.236C139.162 34.648 138.985 33.9807 138.985 33.234C138.985 32.478 139.162 31.8107 139.517 31.232C139.881 30.644 140.371 30.1867 140.987 29.86C141.612 29.524 142.326 29.356 143.129 29.356C143.922 29.356 144.632 29.524 145.257 29.86C145.882 30.1867 146.372 30.6393 146.727 31.218C147.082 31.7967 147.259 32.4687 147.259 33.234C147.259 33.9807 147.082 34.648 146.727 35.236C146.372 35.8147 145.882 36.272 145.257 36.608C144.632 36.944 143.922 37.112 143.129 37.112ZM143.129 35.32C143.493 35.32 143.82 35.236 144.109 35.068C144.398 34.9 144.627 34.662 144.795 34.354C144.963 34.0367 145.047 33.6633 145.047 33.234C145.047 32.7953 144.963 32.422 144.795 32.114C144.627 31.806 144.398 31.568 144.109 31.4C143.82 31.232 143.493 31.148 143.129 31.148C142.765 31.148 142.438 31.232 142.149 31.4C141.86 31.568 141.626 31.806 141.449 32.114C141.281 32.422 141.197 32.7953 141.197 33.234C141.197 33.6633 141.281 34.0367 141.449 34.354C141.626 34.662 141.86 34.9 142.149 35.068C142.438 35.236 142.765 35.32 143.129 35.32ZM153.416 37V35.53L153.276 35.208V32.576C153.276 32.1093 153.131 31.7453 152.842 31.484C152.562 31.2227 152.128 31.092 151.54 31.092C151.139 31.092 150.742 31.1573 150.35 31.288C149.967 31.4093 149.641 31.5773 149.37 31.792L148.586 30.266C148.997 29.9767 149.491 29.7527 150.07 29.594C150.649 29.4353 151.237 29.356 151.834 29.356C152.982 29.356 153.873 29.6267 154.508 30.168C155.143 30.7093 155.46 31.554 155.46 32.702V37H153.416ZM151.12 37.112C150.532 37.112 150.028 37.014 149.608 36.818C149.188 36.6127 148.866 36.3373 148.642 35.992C148.418 35.6467 148.306 35.2593 148.306 34.83C148.306 34.382 148.413 33.99 148.628 33.654C148.852 33.318 149.202 33.0567 149.678 32.87C150.154 32.674 150.775 32.576 151.54 32.576H153.542V33.85H151.778C151.265 33.85 150.91 33.934 150.714 34.102C150.527 34.27 150.434 34.48 150.434 34.732C150.434 35.012 150.541 35.236 150.756 35.404C150.98 35.5627 151.283 35.642 151.666 35.642C152.03 35.642 152.357 35.558 152.646 35.39C152.935 35.2127 153.145 34.956 153.276 34.62L153.612 35.628C153.453 36.1133 153.164 36.482 152.744 36.734C152.324 36.986 151.783 37.112 151.12 37.112ZM160.925 37.112C160.216 37.112 159.577 36.9533 159.007 36.636C158.438 36.3093 157.985 35.8567 157.649 35.278C157.323 34.6993 157.159 34.018 157.159 33.234C157.159 32.4407 157.323 31.7547 157.649 31.176C157.985 30.5973 158.438 30.1493 159.007 29.832C159.577 29.5147 160.216 29.356 160.925 29.356C161.56 29.356 162.115 29.496 162.591 29.776C163.067 30.056 163.436 30.4807 163.697 31.05C163.959 31.6193 164.089 32.3473 164.089 33.234C164.089 34.1113 163.963 34.8393 163.711 35.418C163.459 35.9873 163.095 36.412 162.619 36.692C162.153 36.972 161.588 37.112 160.925 37.112ZM161.303 35.32C161.658 35.32 161.98 35.236 162.269 35.068C162.559 34.9 162.787 34.662 162.955 34.354C163.133 34.0367 163.221 33.6633 163.221 33.234C163.221 32.7953 163.133 32.422 162.955 32.114C162.787 31.806 162.559 31.568 162.269 31.4C161.98 31.232 161.658 31.148 161.303 31.148C160.939 31.148 160.613 31.232 160.323 31.4C160.034 31.568 159.801 31.806 159.623 32.114C159.455 32.422 159.371 32.7953 159.371 33.234C159.371 33.6633 159.455 34.0367 159.623 34.354C159.801 34.662 160.034 34.9 160.323 35.068C160.613 35.236 160.939 35.32 161.303 35.32ZM163.277 37V35.46L163.319 33.22L163.179 30.994V26.612H165.363V37H163.277ZM175.333 37.112C174.531 37.112 173.817 36.944 173.191 36.608C172.575 36.272 172.085 35.8147 171.721 35.236C171.367 34.648 171.189 33.9807 171.189 33.234C171.189 32.478 171.367 31.8107 171.721 31.232C172.085 30.644 172.575 30.1867 173.191 29.86C173.817 29.524 174.531 29.356 175.333 29.356C176.127 29.356 176.836 29.524 177.461 29.86C178.087 30.1867 178.577 30.6393 178.931 31.218C179.286 31.7967 179.463 32.4687 179.463 33.234C179.463 33.9807 179.286 34.648 178.931 35.236C178.577 35.8147 178.087 36.272 177.461 36.608C176.836 36.944 176.127 37.112 175.333 37.112ZM175.333 35.32C175.697 35.32 176.024 35.236 176.313 35.068C176.603 34.9 176.831 34.662 176.999 34.354C177.167 34.0367 177.251 33.6633 177.251 33.234C177.251 32.7953 177.167 32.422 176.999 32.114C176.831 31.806 176.603 31.568 176.313 31.4C176.024 31.232 175.697 31.148 175.333 31.148C174.969 31.148 174.643 31.232 174.353 31.4C174.064 31.568 173.831 31.806 173.653 32.114C173.485 32.422 173.401 32.7953 173.401 33.234C173.401 33.6633 173.485 34.0367 173.653 34.354C173.831 34.662 174.064 34.9 174.353 35.068C174.643 35.236 174.969 35.32 175.333 35.32ZM185.701 29.356C186.299 29.356 186.831 29.4773 187.297 29.72C187.773 29.9533 188.147 30.3173 188.417 30.812C188.688 31.2973 188.823 31.9227 188.823 32.688V37H186.639V33.024C186.639 32.4173 186.504 31.9693 186.233 31.68C185.972 31.3907 185.599 31.246 185.113 31.246C184.768 31.246 184.455 31.3207 184.175 31.47C183.905 31.61 183.69 31.8293 183.531 32.128C183.382 32.4267 183.307 32.8093 183.307 33.276V37H181.123V29.468H183.209V31.554L182.817 30.924C183.088 30.42 183.475 30.0327 183.979 29.762C184.483 29.4913 185.057 29.356 185.701 29.356ZM198.248 37.112C197.361 37.112 196.67 36.888 196.176 36.44C195.681 35.9827 195.434 35.306 195.434 34.41V27.802H197.618V34.382C197.618 34.6993 197.702 34.9467 197.87 35.124C198.038 35.292 198.266 35.376 198.556 35.376C198.901 35.376 199.195 35.2827 199.438 35.096L200.026 36.636C199.802 36.7947 199.531 36.916 199.214 37C198.906 37.0747 198.584 37.112 198.248 37.112ZM194.272 31.316V29.636H199.494V31.316H194.272ZM206.03 29.356C206.627 29.356 207.159 29.4773 207.626 29.72C208.102 29.9533 208.475 30.3173 208.746 30.812C209.016 31.2973 209.152 31.9227 209.152 32.688V37H206.968V33.024C206.968 32.4173 206.832 31.9693 206.562 31.68C206.3 31.3907 205.927 31.246 205.442 31.246C205.096 31.246 204.784 31.3207 204.504 31.47C204.233 31.61 204.018 31.8293 203.86 32.128C203.71 32.4267 203.636 32.8093 203.636 33.276V37H201.452V26.612H203.636V31.554L203.146 30.924C203.416 30.42 203.804 30.0327 204.308 29.762C204.812 29.4913 205.386 29.356 206.03 29.356ZM215.124 37.112C214.265 37.112 213.509 36.944 212.856 36.608C212.212 36.272 211.713 35.8147 211.358 35.236C211.003 34.648 210.826 33.9807 210.826 33.234C210.826 32.478 210.999 31.8107 211.344 31.232C211.699 30.644 212.179 30.1867 212.786 29.86C213.393 29.524 214.079 29.356 214.844 29.356C215.581 29.356 216.244 29.5147 216.832 29.832C217.429 30.14 217.901 30.588 218.246 31.176C218.591 31.7547 218.764 32.45 218.764 33.262C218.764 33.346 218.759 33.444 218.75 33.556C218.741 33.6587 218.731 33.7567 218.722 33.85H212.604V32.576H217.574L216.734 32.954C216.734 32.562 216.655 32.2213 216.496 31.932C216.337 31.6427 216.118 31.4187 215.838 31.26C215.558 31.092 215.231 31.008 214.858 31.008C214.485 31.008 214.153 31.092 213.864 31.26C213.584 31.4187 213.365 31.6473 213.206 31.946C213.047 32.2353 212.968 32.5807 212.968 32.982V33.318C212.968 33.7287 213.057 34.0927 213.234 34.41C213.421 34.718 213.677 34.956 214.004 35.124C214.34 35.2827 214.732 35.362 215.18 35.362C215.581 35.362 215.931 35.3013 216.23 35.18C216.538 35.0587 216.818 34.8767 217.07 34.634L218.232 35.894C217.887 36.286 217.453 36.5893 216.93 36.804C216.407 37.0093 215.805 37.112 215.124 37.112Z" fill="#2B2626"/>
        <path d="M90.04 66L96.44 52H97.9L104.3 66H102.74L96.86 52.86H97.46L91.58 66H90.04ZM92.56 62.26L93 61.06H101.14L101.58 62.26H92.56ZM111.936 66.1C111.029 66.1 110.209 65.8933 109.476 65.48C108.743 65.0533 108.156 64.4467 107.716 63.66C107.289 62.86 107.076 61.8867 107.076 60.74C107.076 59.5933 107.289 58.6267 107.716 57.84C108.143 57.04 108.723 56.4333 109.456 56.02C110.189 55.6067 111.016 55.4 111.936 55.4C112.936 55.4 113.829 55.6267 114.616 56.08C115.416 56.52 116.043 57.1467 116.496 57.96C116.949 58.76 117.176 59.6867 117.176 60.74C117.176 61.8067 116.949 62.74 116.496 63.54C116.043 64.34 115.416 64.9667 114.616 65.42C113.829 65.8733 112.936 66.1 111.936 66.1ZM106.516 69.88V55.5H107.876V58.66L107.736 60.76L107.936 62.88V69.88H106.516ZM111.836 64.84C112.583 64.84 113.249 64.6733 113.836 64.34C114.423 63.9933 114.889 63.5133 115.236 62.9C115.583 62.2733 115.756 61.5533 115.756 60.74C115.756 59.9267 115.583 59.2133 115.236 58.6C114.889 57.9867 114.423 57.5067 113.836 57.16C113.249 56.8133 112.583 56.64 111.836 56.64C111.089 56.64 110.416 56.8133 109.816 57.16C109.229 57.5067 108.763 57.9867 108.416 58.6C108.083 59.2133 107.916 59.9267 107.916 60.74C107.916 61.5533 108.083 62.2733 108.416 62.9C108.763 63.5133 109.229 63.9933 109.816 64.34C110.416 64.6733 111.089 64.84 111.836 64.84ZM125.691 66.1C124.784 66.1 123.964 65.8933 123.231 65.48C122.497 65.0533 121.911 64.4467 121.471 63.66C121.044 62.86 120.831 61.8867 120.831 60.74C120.831 59.5933 121.044 58.6267 121.471 57.84C121.897 57.04 122.477 56.4333 123.211 56.02C123.944 55.6067 124.771 55.4 125.691 55.4C126.691 55.4 127.584 55.6267 128.371 56.08C129.171 56.52 129.797 57.1467 130.251 57.96C130.704 58.76 130.931 59.6867 130.931 60.74C130.931 61.8067 130.704 62.74 130.251 63.54C129.797 64.34 129.171 64.9667 128.371 65.42C127.584 65.8733 126.691 66.1 125.691 66.1ZM120.271 69.88V55.5H121.631V58.66L121.491 60.76L121.691 62.88V69.88H120.271ZM125.591 64.84C126.337 64.84 127.004 64.6733 127.591 64.34C128.177 63.9933 128.644 63.5133 128.991 62.9C129.337 62.2733 129.511 61.5533 129.511 60.74C129.511 59.9267 129.337 59.2133 128.991 58.6C128.644 57.9867 128.177 57.5067 127.591 57.16C127.004 56.8133 126.337 56.64 125.591 56.64C124.844 56.64 124.171 56.8133 123.571 57.16C122.984 57.5067 122.517 57.9867 122.171 58.6C121.837 59.2133 121.671 59.9267 121.671 60.74C121.671 61.5533 121.837 62.2733 122.171 62.9C122.517 63.5133 122.984 63.9933 123.571 64.34C124.171 64.6733 124.844 64.84 125.591 64.84ZM143.62 66.12C142.58 66.12 141.58 65.9533 140.62 65.62C139.673 65.2733 138.94 64.8333 138.42 64.3L139 63.16C139.493 63.64 140.153 64.0467 140.98 64.38C141.82 64.7 142.7 64.86 143.62 64.86C144.5 64.86 145.213 64.7533 145.76 64.54C146.32 64.3133 146.726 64.0133 146.98 63.64C147.246 63.2667 147.38 62.8533 147.38 62.4C147.38 61.8533 147.22 61.4133 146.9 61.08C146.593 60.7467 146.186 60.4867 145.68 60.3C145.173 60.1 144.613 59.9267 144 59.78C143.386 59.6333 142.773 59.48 142.16 59.32C141.546 59.1467 140.98 58.92 140.46 58.64C139.953 58.36 139.54 57.9933 139.22 57.54C138.913 57.0733 138.76 56.4667 138.76 55.72C138.76 55.0267 138.94 54.3933 139.3 53.82C139.673 53.2333 140.24 52.7667 141 52.42C141.76 52.06 142.733 51.88 143.92 51.88C144.706 51.88 145.486 51.9933 146.26 52.22C147.033 52.4333 147.7 52.7333 148.26 53.12L147.76 54.3C147.16 53.9 146.52 53.6067 145.84 53.42C145.173 53.2333 144.526 53.14 143.9 53.14C143.06 53.14 142.366 53.2533 141.82 53.48C141.273 53.7067 140.866 54.0133 140.6 54.4C140.346 54.7733 140.22 55.2 140.22 55.68C140.22 56.2267 140.373 56.6667 140.68 57C141 57.3333 141.413 57.5933 141.92 57.78C142.44 57.9667 143.006 58.1333 143.62 58.28C144.233 58.4267 144.84 58.5867 145.44 58.76C146.053 58.9333 146.613 59.16 147.12 59.44C147.64 59.7067 148.053 60.0667 148.36 60.52C148.68 60.9733 148.84 61.5667 148.84 62.3C148.84 62.98 148.653 63.6133 148.28 64.2C147.906 64.7733 147.333 65.24 146.56 65.6C145.8 65.9467 144.82 66.12 143.62 66.12ZM155.284 66.1C154.298 66.1 153.538 65.8333 153.004 65.3C152.471 64.7667 152.204 64.0133 152.204 63.04V53.18H153.624V62.96C153.624 63.5733 153.778 64.0467 154.084 64.38C154.404 64.7133 154.858 64.88 155.444 64.88C156.071 64.88 156.591 64.7 157.004 64.34L157.504 65.36C157.224 65.6133 156.884 65.8 156.484 65.92C156.098 66.04 155.698 66.1 155.284 66.1ZM150.324 56.68V55.5H156.824V56.68H150.324ZM164.198 66.1C163.185 66.1 162.272 65.8733 161.458 65.42C160.658 64.9533 160.025 64.32 159.558 63.52C159.092 62.7067 158.858 61.78 158.858 60.74C158.858 59.6867 159.092 58.76 159.558 57.96C160.025 57.16 160.658 56.5333 161.458 56.08C162.258 55.6267 163.172 55.4 164.198 55.4C165.238 55.4 166.158 55.6267 166.958 56.08C167.772 56.5333 168.405 57.16 168.858 57.96C169.325 58.76 169.558 59.6867 169.558 60.74C169.558 61.78 169.325 62.7067 168.858 63.52C168.405 64.32 167.772 64.9533 166.958 65.42C166.145 65.8733 165.225 66.1 164.198 66.1ZM164.198 64.84C164.958 64.84 165.632 64.6733 166.218 64.34C166.805 63.9933 167.265 63.5133 167.598 62.9C167.945 62.2733 168.118 61.5533 168.118 60.74C168.118 59.9133 167.945 59.1933 167.598 58.58C167.265 57.9667 166.805 57.4933 166.218 57.16C165.632 56.8133 164.965 56.64 164.218 56.64C163.472 56.64 162.805 56.8133 162.218 57.16C161.632 57.4933 161.165 57.9667 160.818 58.58C160.472 59.1933 160.298 59.9133 160.298 60.74C160.298 61.5533 160.472 62.2733 160.818 62.9C161.165 63.5133 161.632 63.9933 162.218 64.34C162.805 64.6733 163.465 64.84 164.198 64.84ZM172.657 66V55.5H174.017V58.36L173.877 57.86C174.171 57.06 174.664 56.4533 175.357 56.04C176.051 55.6133 176.911 55.4 177.937 55.4V56.78C177.884 56.78 177.831 56.78 177.777 56.78C177.724 56.7667 177.671 56.76 177.617 56.76C176.511 56.76 175.644 57.1 175.017 57.78C174.391 58.4467 174.077 59.4 174.077 60.64V66H172.657ZM185.091 66.1C183.997 66.1 183.037 65.8733 182.211 65.42C181.384 64.9533 180.737 64.32 180.271 63.52C179.804 62.7067 179.571 61.78 179.571 60.74C179.571 59.7 179.791 58.78 180.231 57.98C180.684 57.18 181.297 56.5533 182.071 56.1C182.857 55.6333 183.737 55.4 184.711 55.4C185.697 55.4 186.571 55.6267 187.331 56.08C188.104 56.52 188.711 57.1467 189.151 57.96C189.591 58.76 189.811 59.6867 189.811 60.74C189.811 60.8067 189.804 60.88 189.791 60.96C189.791 61.0267 189.791 61.1 189.791 61.18H180.651V60.12H189.031L188.471 60.54C188.471 59.78 188.304 59.1067 187.971 58.52C187.651 57.92 187.211 57.4533 186.651 57.12C186.091 56.7867 185.444 56.62 184.711 56.62C183.991 56.62 183.344 56.7867 182.771 57.12C182.197 57.4533 181.751 57.92 181.431 58.52C181.111 59.12 180.951 59.8067 180.951 60.58V60.8C180.951 61.6 181.124 62.3067 181.471 62.92C181.831 63.52 182.324 63.9933 182.951 64.34C183.591 64.6733 184.317 64.84 185.131 64.84C185.771 64.84 186.364 64.7267 186.911 64.5C187.471 64.2733 187.951 63.9267 188.351 63.46L189.151 64.38C188.684 64.94 188.097 65.3667 187.391 65.66C186.697 65.9533 185.931 66.1 185.091 66.1Z" fill="#2B2626"/>
    </g>
    <defs>
        <filter id="filter0_d_1332_756" x="0" y="0" width="256" height="98" filterUnits="userSpaceOnUse" color-interpolation-filters="sRGB">
            <feFlood flood-opacity="0" result="BackgroundImageFix"/>
            <feColorMatrix in="SourceAlpha" type="matrix" values="0 0 0 0 0 0 0 0 0 0 0 0 0 0 0 0 0 0 127 0" result="hardAlpha"/>
            <feOffset dy="2"/>
            <feGaussianBlur stdDeviation="2"/>
            <feColorMatrix type="matrix" values="0 0 0 0 0 0 0 0 0 0 0 0 0 0 0 0 0 0 0.1 0"/>
            <feBlend mode="normal" in2="BackgroundImageFix" result="effect1_dropShadow_1332_756"/>
            <feBlend mode="normal" in="SourceGraphic" in2="effect1_dropShadow_1332_756" result="shape"/>
        </filter>
        <clipPath id="clip0_1332_756">
            <rect width="33" height="38" fill="white" transform="translate(32 28)"/>
        </clipPath>
    </defs>
</svg>
