<svg width="258" height="98" viewBox="0 0 258 98" fill="none"
    xmlns="http://www.w3.org/2000/svg">
    <g filter="url(#filter0_d_1332_755)">
        <rect x="4" y="2" width="250" height="90" rx="10" fill="#F6CE3D"/>
        <rect x="4.5" y="2.5" width="249" height="89" rx="9.5" stroke="#2B2626"/>
        <g clip-path="url(#clip0_1332_755)">
            <path d="M50.9614 46.1894L57.2233 39.9468L36.9976 28.6144C35.6572 27.8924 34.4014 27.7911 33.3002 28.5806L50.9614 46.1894ZM58.2906 53.4981L64.8002 49.8479C66.0708 49.1386 66.7675 48.1337 66.7675 47.0191C66.7675 45.9065 66.0708 44.8995 64.8023 44.1902L58.9089 40.8905L52.2744 47.5025L58.2906 53.4981ZM32.2118 30.1154C32.0762 30.5313 32 30.9957 32 31.5045V62.5484C32 63.3527 32.1779 64.0452 32.4998 64.5962L49.6464 47.5004L32.2118 30.1154ZM50.9614 48.8093L33.9101 65.8101C34.2362 65.9346 34.5878 66.0001 34.9584 66.0001C35.6191 66.0001 36.3073 65.8058 37.0082 65.4174L56.6071 54.446L50.9614 48.8093Z" fill="#2B2626"/>
        </g>
        <path d="M93.162 37V27.2H97.614C98.678 27.2 99.616 27.4053 100.428 27.816C101.24 28.2173 101.875 28.782 102.332 29.51C102.789 30.238 103.018 31.1013 103.018 32.1C103.018 33.0893 102.789 33.9527 102.332 34.69C101.875 35.418 101.24 35.9873 100.428 36.398C99.616 36.7993 98.678 37 97.614 37H93.162ZM95.43 35.138H97.502C98.1553 35.138 98.72 35.0167 99.196 34.774C99.6813 34.522 100.055 34.1673 100.316 33.71C100.587 33.2527 100.722 32.716 100.722 32.1C100.722 31.4747 100.587 30.938 100.316 30.49C100.055 30.0327 99.6813 29.6827 99.196 29.44C98.72 29.188 98.1553 29.062 97.502 29.062H95.43V35.138ZM108.358 37.112C107.556 37.112 106.842 36.944 106.216 36.608C105.6 36.272 105.11 35.8147 104.746 35.236C104.392 34.648 104.214 33.9807 104.214 33.234C104.214 32.478 104.392 31.8107 104.746 31.232C105.11 30.644 105.6 30.1867 106.216 29.86C106.842 29.524 107.556 29.356 108.358 29.356C109.152 29.356 109.861 29.524 110.486 29.86C111.112 30.1867 111.602 30.6393 111.956 31.218C112.311 31.7967 112.488 32.4687 112.488 33.234C112.488 33.9807 112.311 34.648 111.956 35.236C111.602 35.8147 111.112 36.272 110.486 36.608C109.861 36.944 109.152 37.112 108.358 37.112ZM108.358 35.32C108.722 35.32 109.049 35.236 109.338 35.068C109.628 34.9 109.856 34.662 110.024 34.354C110.192 34.0367 110.276 33.6633 110.276 33.234C110.276 32.7953 110.192 32.422 110.024 32.114C109.856 31.806 109.628 31.568 109.338 31.4C109.049 31.232 108.722 31.148 108.358 31.148C107.994 31.148 107.668 31.232 107.378 31.4C107.089 31.568 106.856 31.806 106.678 32.114C106.51 32.422 106.426 32.7953 106.426 33.234C106.426 33.6633 106.51 34.0367 106.678 34.354C106.856 34.662 107.089 34.9 107.378 35.068C107.668 35.236 107.994 35.32 108.358 35.32ZM115.665 37L112.949 29.468H115.007L117.261 35.95H116.281L118.633 29.468H120.481L122.763 35.95H121.783L124.107 29.468H126.039L123.309 37H121.195L119.193 31.442H119.837L117.765 37H115.665ZM131.832 29.356C132.43 29.356 132.962 29.4773 133.428 29.72C133.904 29.9533 134.278 30.3173 134.548 30.812C134.819 31.2973 134.954 31.9227 134.954 32.688V37H132.77V33.024C132.77 32.4173 132.635 31.9693 132.364 31.68C132.103 31.3907 131.73 31.246 131.244 31.246C130.899 31.246 130.586 31.3207 130.306 31.47C130.036 31.61 129.821 31.8293 129.662 32.128C129.513 32.4267 129.438 32.8093 129.438 33.276V37H127.254V29.468H129.34V31.554L128.948 30.924C129.219 30.42 129.606 30.0327 130.11 29.762C130.614 29.4913 131.188 29.356 131.832 29.356ZM137.134 37V26.612H139.318V37H137.134ZM145.129 37.112C144.326 37.112 143.612 36.944 142.987 36.608C142.371 36.272 141.881 35.8147 141.517 35.236C141.162 34.648 140.985 33.9807 140.985 33.234C140.985 32.478 141.162 31.8107 141.517 31.232C141.881 30.644 142.371 30.1867 142.987 29.86C143.612 29.524 144.326 29.356 145.129 29.356C145.922 29.356 146.632 29.524 147.257 29.86C147.882 30.1867 148.372 30.6393 148.727 31.218C149.082 31.7967 149.259 32.4687 149.259 33.234C149.259 33.9807 149.082 34.648 148.727 35.236C148.372 35.8147 147.882 36.272 147.257 36.608C146.632 36.944 145.922 37.112 145.129 37.112ZM145.129 35.32C145.493 35.32 145.82 35.236 146.109 35.068C146.398 34.9 146.627 34.662 146.795 34.354C146.963 34.0367 147.047 33.6633 147.047 33.234C147.047 32.7953 146.963 32.422 146.795 32.114C146.627 31.806 146.398 31.568 146.109 31.4C145.82 31.232 145.493 31.148 145.129 31.148C144.765 31.148 144.438 31.232 144.149 31.4C143.86 31.568 143.626 31.806 143.449 32.114C143.281 32.422 143.197 32.7953 143.197 33.234C143.197 33.6633 143.281 34.0367 143.449 34.354C143.626 34.662 143.86 34.9 144.149 35.068C144.438 35.236 144.765 35.32 145.129 35.32ZM155.416 37V35.53L155.276 35.208V32.576C155.276 32.1093 155.131 31.7453 154.842 31.484C154.562 31.2227 154.128 31.092 153.54 31.092C153.139 31.092 152.742 31.1573 152.35 31.288C151.967 31.4093 151.641 31.5773 151.37 31.792L150.586 30.266C150.997 29.9767 151.491 29.7527 152.07 29.594C152.649 29.4353 153.237 29.356 153.834 29.356C154.982 29.356 155.873 29.6267 156.508 30.168C157.143 30.7093 157.46 31.554 157.46 32.702V37H155.416ZM153.12 37.112C152.532 37.112 152.028 37.014 151.608 36.818C151.188 36.6127 150.866 36.3373 150.642 35.992C150.418 35.6467 150.306 35.2593 150.306 34.83C150.306 34.382 150.413 33.99 150.628 33.654C150.852 33.318 151.202 33.0567 151.678 32.87C152.154 32.674 152.775 32.576 153.54 32.576H155.542V33.85H153.778C153.265 33.85 152.91 33.934 152.714 34.102C152.527 34.27 152.434 34.48 152.434 34.732C152.434 35.012 152.541 35.236 152.756 35.404C152.98 35.5627 153.283 35.642 153.666 35.642C154.03 35.642 154.357 35.558 154.646 35.39C154.935 35.2127 155.145 34.956 155.276 34.62L155.612 35.628C155.453 36.1133 155.164 36.482 154.744 36.734C154.324 36.986 153.783 37.112 153.12 37.112ZM162.925 37.112C162.216 37.112 161.577 36.9533 161.007 36.636C160.438 36.3093 159.985 35.8567 159.649 35.278C159.323 34.6993 159.159 34.018 159.159 33.234C159.159 32.4407 159.323 31.7547 159.649 31.176C159.985 30.5973 160.438 30.1493 161.007 29.832C161.577 29.5147 162.216 29.356 162.925 29.356C163.56 29.356 164.115 29.496 164.591 29.776C165.067 30.056 165.436 30.4807 165.697 31.05C165.959 31.6193 166.089 32.3473 166.089 33.234C166.089 34.1113 165.963 34.8393 165.711 35.418C165.459 35.9873 165.095 36.412 164.619 36.692C164.153 36.972 163.588 37.112 162.925 37.112ZM163.303 35.32C163.658 35.32 163.98 35.236 164.269 35.068C164.559 34.9 164.787 34.662 164.955 34.354C165.133 34.0367 165.221 33.6633 165.221 33.234C165.221 32.7953 165.133 32.422 164.955 32.114C164.787 31.806 164.559 31.568 164.269 31.4C163.98 31.232 163.658 31.148 163.303 31.148C162.939 31.148 162.613 31.232 162.323 31.4C162.034 31.568 161.801 31.806 161.623 32.114C161.455 32.422 161.371 32.7953 161.371 33.234C161.371 33.6633 161.455 34.0367 161.623 34.354C161.801 34.662 162.034 34.9 162.323 35.068C162.613 35.236 162.939 35.32 163.303 35.32ZM165.277 37V35.46L165.319 33.22L165.179 30.994V26.612H167.363V37H165.277ZM177.333 37.112C176.531 37.112 175.817 36.944 175.191 36.608C174.575 36.272 174.085 35.8147 173.721 35.236C173.367 34.648 173.189 33.9807 173.189 33.234C173.189 32.478 173.367 31.8107 173.721 31.232C174.085 30.644 174.575 30.1867 175.191 29.86C175.817 29.524 176.531 29.356 177.333 29.356C178.127 29.356 178.836 29.524 179.461 29.86C180.087 30.1867 180.577 30.6393 180.931 31.218C181.286 31.7967 181.463 32.4687 181.463 33.234C181.463 33.9807 181.286 34.648 180.931 35.236C180.577 35.8147 180.087 36.272 179.461 36.608C178.836 36.944 178.127 37.112 177.333 37.112ZM177.333 35.32C177.697 35.32 178.024 35.236 178.313 35.068C178.603 34.9 178.831 34.662 178.999 34.354C179.167 34.0367 179.251 33.6633 179.251 33.234C179.251 32.7953 179.167 32.422 178.999 32.114C178.831 31.806 178.603 31.568 178.313 31.4C178.024 31.232 177.697 31.148 177.333 31.148C176.969 31.148 176.643 31.232 176.353 31.4C176.064 31.568 175.831 31.806 175.653 32.114C175.485 32.422 175.401 32.7953 175.401 33.234C175.401 33.6633 175.485 34.0367 175.653 34.354C175.831 34.662 176.064 34.9 176.353 35.068C176.643 35.236 176.969 35.32 177.333 35.32ZM187.701 29.356C188.299 29.356 188.831 29.4773 189.297 29.72C189.773 29.9533 190.147 30.3173 190.417 30.812C190.688 31.2973 190.823 31.9227 190.823 32.688V37H188.639V33.024C188.639 32.4173 188.504 31.9693 188.233 31.68C187.972 31.3907 187.599 31.246 187.113 31.246C186.768 31.246 186.455 31.3207 186.175 31.47C185.905 31.61 185.69 31.8293 185.531 32.128C185.382 32.4267 185.307 32.8093 185.307 33.276V37H183.123V29.468H185.209V31.554L184.817 30.924C185.088 30.42 185.475 30.0327 185.979 29.762C186.483 29.4913 187.057 29.356 187.701 29.356ZM200.248 37.112C199.361 37.112 198.67 36.888 198.176 36.44C197.681 35.9827 197.434 35.306 197.434 34.41V27.802H199.618V34.382C199.618 34.6993 199.702 34.9467 199.87 35.124C200.038 35.292 200.266 35.376 200.556 35.376C200.901 35.376 201.195 35.2827 201.438 35.096L202.026 36.636C201.802 36.7947 201.531 36.916 201.214 37C200.906 37.0747 200.584 37.112 200.248 37.112ZM196.272 31.316V29.636H201.494V31.316H196.272ZM208.03 29.356C208.627 29.356 209.159 29.4773 209.626 29.72C210.102 29.9533 210.475 30.3173 210.746 30.812C211.016 31.2973 211.152 31.9227 211.152 32.688V37H208.968V33.024C208.968 32.4173 208.832 31.9693 208.562 31.68C208.3 31.3907 207.927 31.246 207.442 31.246C207.096 31.246 206.784 31.3207 206.504 31.47C206.233 31.61 206.018 31.8293 205.86 32.128C205.71 32.4267 205.636 32.8093 205.636 33.276V37H203.452V26.612H205.636V31.554L205.146 30.924C205.416 30.42 205.804 30.0327 206.308 29.762C206.812 29.4913 207.386 29.356 208.03 29.356ZM217.124 37.112C216.265 37.112 215.509 36.944 214.856 36.608C214.212 36.272 213.713 35.8147 213.358 35.236C213.003 34.648 212.826 33.9807 212.826 33.234C212.826 32.478 212.999 31.8107 213.344 31.232C213.699 30.644 214.179 30.1867 214.786 29.86C215.393 29.524 216.079 29.356 216.844 29.356C217.581 29.356 218.244 29.5147 218.832 29.832C219.429 30.14 219.901 30.588 220.246 31.176C220.591 31.7547 220.764 32.45 220.764 33.262C220.764 33.346 220.759 33.444 220.75 33.556C220.741 33.6587 220.731 33.7567 220.722 33.85H214.604V32.576H219.574L218.734 32.954C218.734 32.562 218.655 32.2213 218.496 31.932C218.337 31.6427 218.118 31.4187 217.838 31.26C217.558 31.092 217.231 31.008 216.858 31.008C216.485 31.008 216.153 31.092 215.864 31.26C215.584 31.4187 215.365 31.6473 215.206 31.946C215.047 32.2353 214.968 32.5807 214.968 32.982V33.318C214.968 33.7287 215.057 34.0927 215.234 34.41C215.421 34.718 215.677 34.956 216.004 35.124C216.34 35.2827 216.732 35.362 217.18 35.362C217.581 35.362 217.931 35.3013 218.23 35.18C218.538 35.0587 218.818 34.8767 219.07 34.634L220.232 35.894C219.887 36.286 219.453 36.5893 218.93 36.804C218.407 37.0093 217.805 37.112 217.124 37.112Z" fill="#2B2626"/>
        <path d="M100.42 66.12C99.3533 66.12 98.3667 65.9467 97.46 65.6C96.5667 65.24 95.7867 64.74 95.12 64.1C94.4667 63.46 93.9533 62.7067 93.58 61.84C93.22 60.9733 93.04 60.0267 93.04 59C93.04 57.9733 93.22 57.0267 93.58 56.16C93.9533 55.2933 94.4733 54.54 95.14 53.9C95.8067 53.26 96.5867 52.7667 97.48 52.42C98.3867 52.06 99.3733 51.88 100.44 51.88C101.507 51.88 102.48 52.0467 103.36 52.38C104.253 52.7133 105.013 53.22 105.64 53.9L104.72 54.84C104.133 54.2533 103.487 53.8333 102.78 53.58C102.073 53.3267 101.313 53.2 100.5 53.2C99.6333 53.2 98.8333 53.3467 98.1 53.64C97.38 53.92 96.7467 54.3267 96.2 54.86C95.6667 55.38 95.2467 55.9933 94.94 56.7C94.6467 57.3933 94.5 58.16 94.5 59C94.5 59.8267 94.6467 60.5933 94.94 61.3C95.2467 62.0067 95.6667 62.6267 96.2 63.16C96.7467 63.68 97.38 64.0867 98.1 64.38C98.8333 64.66 99.6267 64.8 100.48 64.8C101.28 64.8 102.033 64.68 102.74 64.44C103.46 64.2 104.12 63.7933 104.72 63.22L105.56 64.34C104.893 64.9267 104.113 65.3733 103.22 65.68C102.327 65.9733 101.393 66.12 100.42 66.12ZM104.14 64.16V59H105.56V64.34L104.14 64.16ZM113.929 66.1C112.915 66.1 112.002 65.8733 111.189 65.42C110.389 64.9533 109.755 64.32 109.289 63.52C108.822 62.7067 108.589 61.78 108.589 60.74C108.589 59.6867 108.822 58.76 109.289 57.96C109.755 57.16 110.389 56.5333 111.189 56.08C111.989 55.6267 112.902 55.4 113.929 55.4C114.969 55.4 115.889 55.6267 116.689 56.08C117.502 56.5333 118.135 57.16 118.589 57.96C119.055 58.76 119.289 59.6867 119.289 60.74C119.289 61.78 119.055 62.7067 118.589 63.52C118.135 64.32 117.502 64.9533 116.689 65.42C115.875 65.8733 114.955 66.1 113.929 66.1ZM113.929 64.84C114.689 64.84 115.362 64.6733 115.949 64.34C116.535 63.9933 116.995 63.5133 117.329 62.9C117.675 62.2733 117.849 61.5533 117.849 60.74C117.849 59.9133 117.675 59.1933 117.329 58.58C116.995 57.9667 116.535 57.4933 115.949 57.16C115.362 56.8133 114.695 56.64 113.949 56.64C113.202 56.64 112.535 56.8133 111.949 57.16C111.362 57.4933 110.895 57.9667 110.549 58.58C110.202 59.1933 110.029 59.9133 110.029 60.74C110.029 61.5533 110.202 62.2733 110.549 62.9C110.895 63.5133 111.362 63.9933 111.949 64.34C112.535 64.6733 113.195 64.84 113.929 64.84ZM126.668 66.1C125.654 66.1 124.741 65.8733 123.928 65.42C123.128 64.9533 122.494 64.32 122.028 63.52C121.561 62.7067 121.328 61.78 121.328 60.74C121.328 59.6867 121.561 58.76 122.028 57.96C122.494 57.16 123.128 56.5333 123.928 56.08C124.728 55.6267 125.641 55.4 126.668 55.4C127.708 55.4 128.628 55.6267 129.428 56.08C130.241 56.5333 130.874 57.16 131.328 57.96C131.794 58.76 132.028 59.6867 132.028 60.74C132.028 61.78 131.794 62.7067 131.328 63.52C130.874 64.32 130.241 64.9533 129.428 65.42C128.614 65.8733 127.694 66.1 126.668 66.1ZM126.668 64.84C127.428 64.84 128.101 64.6733 128.688 64.34C129.274 63.9933 129.734 63.5133 130.068 62.9C130.414 62.2733 130.588 61.5533 130.588 60.74C130.588 59.9133 130.414 59.1933 130.068 58.58C129.734 57.9667 129.274 57.4933 128.688 57.16C128.101 56.8133 127.434 56.64 126.688 56.64C125.941 56.64 125.274 56.8133 124.688 57.16C124.101 57.4933 123.634 57.9667 123.288 58.58C122.941 59.1933 122.768 59.9133 122.768 60.74C122.768 61.5533 122.941 62.2733 123.288 62.9C123.634 63.5133 124.101 63.9933 124.688 64.34C125.274 64.6733 125.934 64.84 126.668 64.84ZM139.607 69.98C138.647 69.98 137.727 69.84 136.847 69.56C135.967 69.28 135.254 68.88 134.707 68.36L135.427 67.28C135.92 67.72 136.527 68.0667 137.247 68.32C137.98 68.5867 138.754 68.72 139.567 68.72C140.9 68.72 141.88 68.4067 142.507 67.78C143.134 67.1667 143.447 66.2067 143.447 64.9V62.28L143.647 60.48L143.507 58.68V55.5H144.867V64.72C144.867 66.5333 144.42 67.86 143.527 68.7C142.647 69.5533 141.34 69.98 139.607 69.98ZM139.347 65.6C138.347 65.6 137.447 65.3867 136.647 64.96C135.847 64.52 135.214 63.9133 134.747 63.14C134.294 62.3667 134.067 61.48 134.067 60.48C134.067 59.48 134.294 58.6 134.747 57.84C135.214 57.0667 135.847 56.4667 136.647 56.04C137.447 55.6133 138.347 55.4 139.347 55.4C140.28 55.4 141.12 55.5933 141.867 55.98C142.614 56.3667 143.207 56.94 143.647 57.7C144.087 58.46 144.307 59.3867 144.307 60.48C144.307 61.5733 144.087 62.5 143.647 63.26C143.207 64.02 142.614 64.6 141.867 65C141.12 65.4 140.28 65.6 139.347 65.6ZM139.487 64.34C140.26 64.34 140.947 64.18 141.547 63.86C142.147 63.5267 142.62 63.0733 142.967 62.5C143.314 61.9133 143.487 61.24 143.487 60.48C143.487 59.72 143.314 59.0533 142.967 58.48C142.62 57.9067 142.147 57.46 141.547 57.14C140.947 56.8067 140.26 56.64 139.487 56.64C138.727 56.64 138.04 56.8067 137.427 57.14C136.827 57.46 136.354 57.9067 136.007 58.48C135.674 59.0533 135.507 59.72 135.507 60.48C135.507 61.24 135.674 61.9133 136.007 62.5C136.354 63.0733 136.827 63.5267 137.427 63.86C138.04 64.18 138.727 64.34 139.487 64.34ZM149.018 66V51.16H150.438V66H149.018ZM159.049 66.1C157.956 66.1 156.996 65.8733 156.169 65.42C155.343 64.9533 154.696 64.32 154.229 63.52C153.763 62.7067 153.529 61.78 153.529 60.74C153.529 59.7 153.749 58.78 154.189 57.98C154.643 57.18 155.256 56.5533 156.029 56.1C156.816 55.6333 157.696 55.4 158.669 55.4C159.656 55.4 160.529 55.6267 161.289 56.08C162.063 56.52 162.669 57.1467 163.109 57.96C163.549 58.76 163.769 59.6867 163.769 60.74C163.769 60.8067 163.763 60.88 163.749 60.96C163.749 61.0267 163.749 61.1 163.749 61.18H154.609V60.12H162.989L162.429 60.54C162.429 59.78 162.263 59.1067 161.929 58.52C161.609 57.92 161.169 57.4533 160.609 57.12C160.049 56.7867 159.403 56.62 158.669 56.62C157.949 56.62 157.303 56.7867 156.729 57.12C156.156 57.4533 155.709 57.92 155.389 58.52C155.069 59.12 154.909 59.8067 154.909 60.58V60.8C154.909 61.6 155.083 62.3067 155.429 62.92C155.789 63.52 156.283 63.9933 156.909 64.34C157.549 64.6733 158.276 64.84 159.089 64.84C159.729 64.84 160.323 64.7267 160.869 64.5C161.429 64.2733 161.909 63.9267 162.309 63.46L163.109 64.38C162.643 64.94 162.056 65.3667 161.349 65.66C160.656 65.9533 159.889 66.1 159.049 66.1ZM172.594 66V52H177.834C179.021 52 180.041 52.1933 180.894 52.58C181.747 52.9533 182.401 53.5 182.854 54.22C183.321 54.9267 183.554 55.7867 183.554 56.8C183.554 57.7867 183.321 58.64 182.854 59.36C182.401 60.0667 181.747 60.6133 180.894 61C180.041 61.3867 179.021 61.58 177.834 61.58H173.414L174.074 60.88V66H172.594ZM174.074 61L173.414 60.28H177.794C179.194 60.28 180.254 59.98 180.974 59.38C181.707 58.7667 182.074 57.9067 182.074 56.8C182.074 55.68 181.707 54.8133 180.974 54.2C180.254 53.5867 179.194 53.28 177.794 53.28H173.414L174.074 52.58V61ZM186.85 66V51.16H188.27V66H186.85ZM199.001 66V63.68L198.941 63.3V59.42C198.941 58.5267 198.687 57.84 198.181 57.36C197.687 56.88 196.947 56.64 195.961 56.64C195.281 56.64 194.634 56.7533 194.021 56.98C193.407 57.2067 192.887 57.5067 192.461 57.88L191.821 56.82C192.354 56.3667 192.994 56.02 193.741 55.78C194.487 55.5267 195.274 55.4 196.101 55.4C197.461 55.4 198.507 55.74 199.241 56.42C199.987 57.0867 200.361 58.1067 200.361 59.48V66H199.001ZM195.381 66.1C194.594 66.1 193.907 65.9733 193.321 65.72C192.747 65.4533 192.307 65.0933 192.001 64.64C191.694 64.1733 191.541 63.64 191.541 63.04C191.541 62.4933 191.667 62 191.921 61.56C192.187 61.1067 192.614 60.7467 193.201 60.48C193.801 60.2 194.601 60.06 195.601 60.06H199.221V61.12H195.641C194.627 61.12 193.921 61.3 193.521 61.66C193.134 62.02 192.941 62.4667 192.941 63C192.941 63.6 193.174 64.08 193.641 64.44C194.107 64.8 194.761 64.98 195.601 64.98C196.401 64.98 197.087 64.8 197.661 64.44C198.247 64.0667 198.674 63.5333 198.941 62.84L199.261 63.82C198.994 64.5133 198.527 65.0667 197.861 65.48C197.207 65.8933 196.381 66.1 195.381 66.1ZM204.302 69.98C203.809 69.98 203.336 69.9 202.882 69.74C202.442 69.58 202.062 69.34 201.742 69.02L202.402 67.96C202.669 68.2133 202.956 68.4067 203.262 68.54C203.582 68.6867 203.936 68.76 204.322 68.76C204.789 68.76 205.189 68.6267 205.522 68.36C205.869 68.1067 206.196 67.6533 206.502 67L207.182 65.46L207.342 65.24L211.662 55.5H213.062L207.802 67.26C207.509 67.94 207.182 68.48 206.822 68.88C206.476 69.28 206.096 69.56 205.682 69.72C205.269 69.8933 204.809 69.98 204.302 69.98ZM207.102 66.3L202.262 55.5H203.742L208.022 65.14L207.102 66.3Z" fill="#2B2626"/>
    </g>
    <defs>
        <filter id="filter0_d_1332_755" x="0" y="0" width="258" height="98" filterUnits="userSpaceOnUse" color-interpolation-filters="sRGB">
            <feFlood flood-opacity="0" result="BackgroundImageFix"/>
            <feColorMatrix in="SourceAlpha" type="matrix" values="0 0 0 0 0 0 0 0 0 0 0 0 0 0 0 0 0 0 127 0" result="hardAlpha"/>
            <feOffset dy="2"/>
            <feGaussianBlur stdDeviation="2"/>
            <feColorMatrix type="matrix" values="0 0 0 0 0 0 0 0 0 0 0 0 0 0 0 0 0 0 0.1 0"/>
            <feBlend mode="normal" in2="BackgroundImageFix" result="effect1_dropShadow_1332_755"/>
            <feBlend mode="normal" in="SourceGraphic" in2="effect1_dropShadow_1332_755" result="shape"/>
        </filter>
        <clipPath id="clip0_1332_755">
            <rect width="35" height="38.0001" fill="white" transform="translate(32 28)"/>
        </clipPath>
    </defs>
</svg>
